<svg xmlns="http://www.w3.org/2000/svg" width="218" height="42" fill="none"><path fill="#B382F1" d="M74.822 18.097c2.61-1.279 7.43-1.584 9.154.717.714.953.83 2.243.617 3.414-.213 1.17-.72 2.263-1.159 3.37-.44 1.105-.822 2.27-.765 3.458.136 2.85 3.04 5.606.395 8.571-1.743 1.955-5.236 2.908-7.618-.347-2.539-3.469-2.492-7.221-4.336-10.405-1.454-2.511-.256-6.833 3.712-8.778m10.217-3.562c-.302 1.276-1.418 2.108-2.49 1.855-1.071-.253-1.697-1.498-1.395-2.774.3-1.268 1.416-2.1 2.488-1.847s1.697 1.498 1.397 2.766m-5.196-.533c.042 1.08-.655 1.988-1.556 2.023s-1.668-.814-1.71-1.894c-.042-1.072.656-1.98 1.556-2.015.901-.036 1.668.815 1.71 1.887Zm-4.17.947c.258.938-.168 1.877-.95 2.093s-1.63-.373-1.888-1.31c-.256-.933.17-1.871.952-2.087s1.629.373 1.885 1.305Zm-3.538 2.091c.48.847.296 1.862-.41 2.262s-1.67.036-2.15-.81c-.477-.84-.294-1.855.413-2.255.706-.4 1.67-.037 2.147.803m-2.164 3.244c.53.69.493 1.61-.082 2.052s-1.473.24-2.002-.45c-.526-.684-.49-1.604.085-2.046.576-.442 1.473-.24 1.999.444m30.802-7.517c-1.253-2.898-4.586-5.06-9.04-4.761-3.592.24-4.986 2.264-4.472 5.09.213 1.17.72 2.263 1.16 3.369.439 1.105.82 2.27.764 3.458-.135 2.85-3.04 5.606-.395 8.571 1.744 1.955 5.236 2.908 7.618-.347 2.54-3.47 2.493-7.221 4.337-10.406.846-1.462.679-3.47.028-4.974M86.816 5.401c.302 1.276 1.418 2.11 2.49 1.856 1.07-.253 1.696-1.498 1.394-2.775-.3-1.267-1.416-2.1-2.488-1.847s-1.696 1.499-1.396 2.766m5.195-.531c-.042 1.08.656 1.987 1.556 2.022.902.036 1.668-.814 1.71-1.894.043-1.073-.655-1.98-1.556-2.015-.9-.035-1.667.814-1.71 1.887m4.171.947c-.259.938.167 1.877.95 2.092s1.629-.373 1.887-1.311c.257-.932-.169-1.87-.952-2.086s-1.628.373-1.885 1.305m3.537 2.09c-.48.847-.296 1.861.411 2.262.706.4 1.67.037 2.15-.81.477-.841.293-1.855-.413-2.255-.707-.4-1.671-.037-2.148.804Zm2.164 3.245c-.529.689-.493 1.608.082 2.05s1.473.24 2.002-.449c.527-.684.49-1.604-.085-2.046s-1.473-.24-1.999.444Z"/><path fill="#2E2E2E" d="m3.054 14.506 5.533-.08q.16 1.725.24 3.408.08 1.684.08 3.248.04 1.563.04 3.047v7.738q-.36.08-1.162.16a10 10 0 0 1-1.564.121q-1.764 0-2.486-.601-.681-.602-.681-2.166zm21.37 10.305-5.573.04a70 70 0 0 1-.32-5.573q-.04-2.648-.04-5.052V7.49q.4-.08 1.162-.2a10 10 0 0 1 1.604-.121q1.724 0 2.445.641.722.602.722 2.125zm0-1.925v8.22q-.521.48-1.483.761-.922.321-2.206.321a7.4 7.4 0 0 1-2.566-.44q-1.162-.442-1.924-1.966l-4.852-9.221-.882-1.765-.802-1.764-.802-1.844-5.853 1.323V8.612q.48-.682 1.483-1.042a6.8 6.8 0 0 1 2.245-.361q1.323 0 2.486.441 1.203.441 1.965 1.925l4.892 9.262q.441.84.882 1.764.44.882.842 1.764.4.883.761 1.804zm5.125 1.484v-2.887h5.935v2.846q0 1.845.922 2.647.962.802 2.686.802 1.083 0 1.804-.2.721-.201 1.083-.402v-5.693h5.974v6.415q0 .963-.4 1.644-.361.681-1.204 1.203-1.282.802-3.167 1.243-1.844.48-4.13.48-2.846 0-5.012-.841-2.125-.842-3.328-2.606-1.163-1.805-1.163-4.651m18.404-1.083H41.98V12.702q.401-.12 1.123-.24a9.5 9.5 0 0 1 1.563-.12q1.724 0 2.486.6.802.562.802 2.206v8.14Zm-12.47 0H29.55V12.702q.36-.12 1.082-.24a9.5 9.5 0 0 1 1.564-.12q1.724 0 2.486.6.801.562.802 2.206v8.14Zm23.024-5.493v5.012h-5.934v-5.734q0-1.122.521-1.884.561-.802 1.524-1.404 1.323-.801 3.167-1.242a15.8 15.8 0 0 1 3.93-.482q4.09 0 4.09 2.727 0 .642-.201 1.203a4 4 0 0 1-.401.962 8 8 0 0 0-1.003-.12 9 9 0 0 0-1.242-.08q-1.203 0-2.406.28t-2.045.762m-5.934 3.488 5.934.12v10.425q-.401.12-1.123.2a9.4 9.4 0 0 1-1.563.121q-1.685 0-2.486-.601-.762-.602-.762-2.166zm56.385 0h5.894v4.29q0 1.124.721 1.644.722.522 2.045.522.602 0 1.283-.12a7.3 7.3 0 0 0 1.203-.361q.321.36.561.882a2.5 2.5 0 0 1 .281 1.202q0 1.365-1.123 2.246-1.122.882-3.769.882-3.368 0-5.252-1.524-1.844-1.523-1.844-4.972zm3.768-3.648v-4.571h7.699q.2.32.401.922.2.601.2 1.323 0 1.203-.561 1.764-.522.562-1.444.562zm2.126 4.65h-5.894V7.892q.4-.12 1.122-.241.722-.16 1.524-.16 1.724 0 2.486.601t.762 2.205v11.989Zm9.688 2.086v-2.887h5.935v2.846q0 1.845.922 2.647.962.802 2.686.802 1.083 0 1.804-.2.722-.201 1.083-.402v-5.693h5.974v6.415q0 .963-.401 1.644-.36.681-1.203 1.203-1.283.802-3.167 1.243-1.845.48-4.13.48-2.847 0-5.012-.841-2.125-.842-3.328-2.606-1.163-1.805-1.163-4.651m18.404-1.083h-5.974V12.702q.4-.12 1.123-.24a9.5 9.5 0 0 1 1.563-.12q1.725 0 2.486.6.802.562.802 2.206v8.14Zm-12.469 0h-5.935V12.702q.362-.12 1.083-.24a9.5 9.5 0 0 1 1.564-.12q1.724 0 2.486.6.801.562.802 2.206v8.14Zm23.023-5.493v5.012h-5.934v-5.734q0-1.122.521-1.884.561-.802 1.524-1.404 1.323-.801 3.167-1.242a15.8 15.8 0 0 1 3.93-.482q4.089 0 4.089 2.727 0 .642-.2 1.203a4 4 0 0 1-.401.962 8 8 0 0 0-1.003-.12 9 9 0 0 0-1.243-.08q-1.202 0-2.405.28t-2.045.762m-5.934 3.488 5.934.12v10.425q-.401.12-1.123.2a9.4 9.4 0 0 1-1.563.121q-1.685 0-2.486-.601-.762-.602-.762-2.166zm16.01-14.193q0-1.364.922-2.286.962-.922 2.406-.922 1.483 0 2.405.922t.922 2.286a3.2 3.2 0 0 1-.922 2.285q-.922.962-2.405.962-1.444 0-2.406-.962a3.2 3.2 0 0 1-.922-2.285m.361 14.193h5.934v10.545q-.362.12-1.083.2a9.4 9.4 0 0 1-1.564.121q-1.724 0-2.526-.601-.762-.602-.761-2.166zm5.934 3.088h-5.934V12.862q.36-.12 1.082-.24a10 10 0 0 1 1.604-.12q1.724 0 2.486.6.762.562.762 2.206zm23.233-4.972v3.769h-5.974v-3.569q0-1.483-.882-2.165-.842-.721-2.245-.721a5.8 5.8 0 0 0-1.845.28 8 8 0 0 0-1.523.602v5.573h-5.934v-6.255q0-1.002.4-1.644.442-.681 1.243-1.203 1.284-.882 3.288-1.443 2.005-.602 4.411-.602 4.33 0 6.696 1.925 2.365 1.884 2.365 5.453m-18.403 1.924h5.934v10.505q-.402.12-1.123.2a9.4 9.4 0 0 1-1.564.121q-1.683 0-2.486-.601-.762-.602-.761-2.166zm12.429 0h5.974v10.505q-.4.12-1.123.2a9.4 9.4 0 0 1-1.563.121q-1.685 0-2.486-.601-.802-.602-.802-2.166zm18.572 9.784q-2.365 0-4.411-.883-2.005-.922-3.247-3.007-1.203-2.124-1.203-5.533 0-3.167 1.243-5.292a8.07 8.07 0 0 1 3.568-3.248q2.286-1.122 5.293-1.123 2.165 0 4.009.602 1.885.56 2.927 1.243.722.48 1.163 1.162.441.642.441 1.644v12.59h-5.734V17.353a6 6 0 0 0-1.082-.441q-.601-.2-1.524-.2-1.925 0-3.167 1.202-1.203 1.203-1.203 3.77 0 2.805 1.123 3.889 1.162 1.041 2.886 1.042 1.324 0 2.206-.441a8.4 8.4 0 0 0 1.523-1.043l.161 4.732q-.843.52-2.045.882-1.203.36-2.927.36Zm4.17.561v-3.729h5.613v3.89q0 2.806-1.323 4.57-1.283 1.764-3.528 2.606-2.206.842-4.972.842-2.085 0-3.729-.36-1.604-.361-2.446-.923-1.363-.881-1.363-2.486 0-.841.321-1.523.36-.642.842-.962 1.082.64 2.566 1.082 1.483.48 3.127.481 2.246 0 3.569-.842 1.323-.801 1.323-2.646"/></svg>